<?xml version="1.0" encoding="UTF-8"?>
<svg version="1.1" xmlns="http://www.w3.org/2000/svg" width="667" height="375">
<path d="M0 0 C5.63542392 5.48222793 10.88779059 11.27006469 15 18 C15 18.66 15 19.32 15 20 C15.66 20 16.32 20 17 20 C18.17780436 22.91229133 19.34025075 25.83047678 20.5 28.75 C21.00080078 29.9875 21.00080078 29.9875 21.51171875 31.25 C21.98544922 32.44882813 21.98544922 32.44882813 22.46875 33.671875 C22.76201172 34.4050293 23.05527344 35.13818359 23.35742188 35.89355469 C24 38 24 38 24 42 C24.66 42 25.32 42 26 42 C28.96998337 68.83592119 27.85143362 89.77999048 15 114 C14.34 114 13.68 114 13 114 C12.61521484 114.84304687 12.61521484 114.84304687 12.22265625 115.703125 C8.27068354 123.1272782 2.17003934 129.06178525 -4.21484375 134.40625 C-6.09963585 135.89145834 -6.09963585 135.89145834 -7 138 C-8.97291815 139.0524229 -10.98016552 140.04069365 -13 141 C-14.27046563 141.65322053 -15.53860898 142.31097268 -16.8046875 142.97265625 C-18.16140102 143.66938244 -19.51817274 144.36599534 -20.875 145.0625 C-21.54402344 145.41376953 -22.21304688 145.76503906 -22.90234375 146.12695312 C-27.53765447 148.48926466 -31.9117563 149.90153128 -37 151 C-37 151.66 -37 152.32 -37 153 C-35.80375 153.20625 -34.6075 153.4125 -33.375 153.625 C-23.73825985 155.77496893 -14.77142947 159.95555485 -7 166 C-6.01 166.33 -5.02 166.66 -4 167 C-2.28447293 168.61632993 -0.62623687 170.29386132 1 172 C2.00484623 173.00817354 3.01007005 174.01597084 4.015625 175.0234375 C21.32403211 192.77312791 31.37090201 214.00815028 31.16796875 239.171875 C31 241 31 241 30 242 C6.9019338 243.52811634 -13.01174466 236.39060427 -31 222 C-46.55082924 208.3542581 -56.25851694 190.96413921 -61 171 C-61.20753906 172.00417969 -61.41507812 173.00835937 -61.62890625 174.04296875 C-65.97564582 193.79999285 -77.03980774 210.45984894 -93 223 C-93.44085938 223.4640625 -93.88171875 223.928125 -94.3359375 224.40625 C-99.75194889 229.59341584 -106.65333145 233.53066629 -114 235 C-114 235.66 -114 236.32 -114 237 C-116.51974253 237.65035371 -119.04065935 238.29537493 -121.5625 238.9375 C-122.26697266 239.11990234 -122.97144531 239.30230469 -123.69726562 239.49023438 C-130.20497539 241.1396539 -136.51355895 242.14227293 -143.25 242.125 C-144.26578125 242.12757813 -145.2815625 242.13015625 -146.328125 242.1328125 C-149 242 -149 242 -152 241 C-153.16616135 218.58378745 -146.21986392 197.99850367 -131.1328125 181.25390625 C-128.37559312 178.34014145 -125.5756816 175.4723262 -122.75 172.625 C-121.97052002 171.83838989 -121.97052002 171.83838989 -121.17529297 171.03588867 C-115.11282315 165 -115.11282315 165 -111 165 C-111 164.34 -111 163.68 -111 163 C-102.17154701 158.28796212 -93.70708068 154.59607972 -84 152 C-85.18142578 151.58041016 -85.18142578 151.58041016 -86.38671875 151.15234375 C-109.81314546 142.53030978 -130.2923641 127.45274718 -141.32373047 104.49926758 C-151.8168641 81.42460841 -152.39128784 55.91145738 -144 32 C-138.71823003 19.79176465 -131.18026009 10.06889913 -121.9375 0.625 C-121.34759277 0.01712646 -120.75768555 -0.59074707 -120.14990234 -1.21704102 C-112.35059947 -9 -112.35059947 -9 -107 -9 C-107 -9.66 -107 -10.32 -107 -11 C-99.46805171 -14.64791853 -92.1257915 -17.94803245 -84 -20 C-83.27554688 -20.19335938 -82.55109375 -20.38671875 -81.8046875 -20.5859375 C-52.60750378 -27.80674638 -22.37709861 -19.74449878 0 0 Z M-98.26953125 32.75 C-106.12432421 42.96300394 -110.36525972 53.12459609 -110.25 66.0625 C-110.25773437 66.93455078 -110.26546875 67.80660156 -110.2734375 68.70507812 C-110.24043715 79.60344248 -105.50979475 91.21663634 -98.0234375 99.27734375 C-85.24279984 110.15815689 -72.79150973 114.76566869 -55.9609375 113.8203125 C-41.68628139 112.66502951 -30.43387667 106.72594608 -21 96 C-20.15330259 93.83043762 -20.15330259 93.83043762 -20 92 C-19.34 92 -18.68 92 -18 92 C-17.20192802 90.31551982 -16.41187699 88.62723873 -15.625 86.9375 C-14.96371094 85.52791016 -14.96371094 85.52791016 -14.2890625 84.08984375 C-9.67705921 73.03501162 -9.78576189 61.45072326 -13 50 C-13.66 50 -14.32 50 -15 50 C-15.10054688 49.11183594 -15.20109375 48.22367188 -15.3046875 47.30859375 C-16.94333514 39.51120861 -23.75627849 31.82726926 -30 27 C-51.37302547 13.8926377 -79.92069536 13.22439791 -98.26953125 32.75 Z " fill="#B2B973" transform="translate(394,70)"/>
<path d="M0 0 C0.33 0 0.66 0 1 0 C1 123.75 1 247.5 1 375 C-219.11 375 -439.22 375 -666 375 C-666 374.67 -666 374.34 -666 374 C-446.22 374 -226.44 374 0 374 C0 250.58 0 127.16 0 0 Z " fill="#BFBFBF" transform="translate(666,0)"/>
</svg>
