<?xml version="1.0" encoding="UTF-8"?>
<svg version="1.1" xmlns="http://www.w3.org/2000/svg" width="667" height="375">
<path d="M0 0 C15.05787103 11.95137615 26.07796205 26.64378985 32 45 C32.39316406 46.15371094 32.78632813 47.30742188 33.19140625 48.49609375 C39.88458501 70.90774805 36.87663239 94.80212214 26.22680664 115.41821289 C22.75783863 121.76066287 18.58354193 127.40908622 14 133 C13.46117187 133.71414062 12.92234375 134.42828125 12.3671875 135.1640625 C2.17599947 148.01827454 -14.63302102 156.42247083 -30.2421875 160.4921875 C-32.01081106 160.84978528 -32.01081106 160.84978528 -33 162 C-32.3915625 162.13535156 -31.783125 162.27070313 -31.15625 162.41015625 C-8.37613745 168.00468389 12.36813722 181.35717791 25.34765625 201.19140625 C34.78717345 217.23635392 41.25805207 234.01821442 40 253 C37.82751804 255.17248196 32.76954949 254.30911539 29.77685547 254.32128906 C10.54247895 254.00908378 -10.03934421 245.36104317 -23.78125 232.11328125 C-25.96735141 229.95600695 -25.96735141 229.95600695 -28.44921875 228.12109375 C-42.58525599 216.36631853 -50.17540816 198.51260475 -54 181 C-55.65942911 184.08595589 -56.72455433 187.15380886 -57.75 190.5 C-61.59392384 202.10217306 -67.31060771 211.53613256 -75 221 C-75.68835938 221.86625 -76.37671875 222.7325 -77.0859375 223.625 C-90.08275689 239.08590039 -111.896135 251.27988141 -132 254 C-134.76117836 254.09276686 -137.49026433 254.13989066 -140.25 254.125 C-140.9821875 254.12886719 -141.714375 254.13273437 -142.46875 254.13671875 C-147.87328966 254.12671034 -147.87328966 254.12671034 -149 253 C-151.02495743 229.36443134 -141.47233548 209.10745899 -127 191 C-114.31663329 176.09877682 -97.45310634 167.65230284 -79 162 C-81.99881077 160.00079282 -84.62113307 158.96834144 -88 157.75 C-106.88753931 150.54676993 -120.62136961 138.48937116 -132 122 C-132.69609375 121.04867187 -132.69609375 121.04867187 -133.40625 120.078125 C-146.26582151 101.44823294 -148.64672918 75.89656256 -144.9375 54.125 C-139.65025962 31.7710395 -125.32369137 9.68860719 -106 -3 C-97.16930803 -8.12950517 -87.87967923 -12.34967436 -78 -15 C-77.36940674 -15.17515137 -76.73881348 -15.35030273 -76.08911133 -15.53076172 C-49.9702551 -22.15127904 -21.67986371 -15.12675629 0 0 Z M-93.6015625 40.09765625 C-100.38374339 48.30475788 -105.28145338 57.20583299 -106 68 C-106.06832031 68.89203125 -106.13664062 69.7840625 -106.20703125 70.703125 C-106.74296214 84.59762949 -101.74191543 96.60604659 -92.9375 107.1875 C-83.08948789 117.56426444 -71.34505031 122.76693664 -57.171875 123.39819336 C-41.88016797 123.69184374 -28.87738526 118.65818659 -17.6875 108.1875 C-7.70057992 97.54703914 -3.35995815 85.00110534 -3.52734375 70.58203125 C-4.03164263 57.6456686 -10.58307241 44.89259977 -20 36 C-42.73444737 17.65699289 -73.04780105 18.53890016 -93.6015625 40.09765625 Z " fill="#B7E150" transform="translate(387,69)"/>
<path d="M0 0 C0.33 0 0.66 0 1 0 C1 123.75 1 247.5 1 375 C-219.11 375 -439.22 375 -666 375 C-666 374.67 -666 374.34 -666 374 C-446.22 374 -226.44 374 0 374 C0 250.58 0 127.16 0 0 Z " fill="#BFBFBF" transform="translate(666,0)"/>
<path d="M0 0 C12.66970387 -0.55353075 12.66970387 -0.55353075 18 3 C17.67 4.32 17.34 5.64 17 7 C16.27554687 6.73445313 15.55109375 6.46890625 14.8046875 6.1953125 C9.88942809 4.3996044 4.97853195 2.61465901 0 1 C0 0.67 0 0.34 0 0 Z " fill="#9EC642" transform="translate(338,91)"/>
</svg>
