<?xml version="1.0" encoding="UTF-8"?>
<svg version="1.1" xmlns="http://www.w3.org/2000/svg" width="667" height="375">
<path d="M0 0 C17.54906409 14.56198935 29.75517428 36.99849585 32.09765625 59.73046875 C34.16251172 84.91812333 28.12298107 108.4082213 12.6328125 128.5078125 C11.30151751 130.06927244 9.94685809 131.61109449 8.5703125 133.1328125 C7.83425781 133.96167969 7.09820312 134.79054687 6.33984375 135.64453125 C-5.60754862 148.37152508 -21.60080969 156.80213063 -38.4296875 161.1328125 C-37.676875 161.32875 -36.9240625 161.5246875 -36.1484375 161.7265625 C-11.63021347 168.62975179 10.65523068 183.48347373 23.67578125 205.70703125 C32.72005651 222.06131867 36.39510977 236.62069597 35.5703125 255.1328125 C20.44165598 260.17569801 0.3172997 251.0403096 -13.22558594 244.41577148 C-33.30435687 234.11464675 -48.17825664 216.56298793 -55.8046875 195.3828125 C-56.05573242 194.68583252 -56.30677734 193.98885254 -56.56542969 193.27075195 C-58.16760151 188.55752892 -58.95194855 184.08796528 -59.4296875 179.1328125 C-60.0896875 179.1328125 -60.7496875 179.1328125 -61.4296875 179.1328125 C-61.5121875 180.2259375 -61.5946875 181.3190625 -61.6796875 182.4453125 C-63.47997251 196.33670088 -71.31121507 210.70355966 -80.4296875 221.1328125 C-81.4815625 222.36451172 -81.4815625 222.36451172 -82.5546875 223.62109375 C-84.79249249 226.18136023 -87.08830304 228.66714222 -89.4296875 231.1328125 C-90.05875 231.81214844 -90.6878125 232.49148438 -91.3359375 233.19140625 C-98.71018598 240.46323461 -108.22898311 244.63701377 -117.4296875 249.1328125 C-118.3371875 249.60074219 -119.2446875 250.06867188 -120.1796875 250.55078125 C-129.83684582 255.05170682 -147.20427414 258.54128362 -157.4296875 255.1328125 C-158.8074348 230.58849951 -148.30063097 206.76239344 -132.2421875 188.66796875 C-120.39046057 176.28714687 -104.09136267 166.56039052 -87.4296875 162.1328125 C-86.1096875 162.1328125 -84.7896875 162.1328125 -83.4296875 162.1328125 C-83.4296875 161.4728125 -83.4296875 160.8128125 -83.4296875 160.1328125 C-84.42226563 160.03355469 -85.41484375 159.93429688 -86.4375 159.83203125 C-90.71773857 159.21549613 -94.38302443 157.7177569 -98.3046875 155.9453125 C-99.00867676 155.62997559 -99.71266602 155.31463867 -100.43798828 154.98974609 C-110.18639396 150.52144573 -117.64798477 144.47165409 -125.4296875 137.1328125 C-126.10902344 136.52953125 -126.78835938 135.92625 -127.48828125 135.3046875 C-142.81943806 121.11488442 -152.4544412 99.4964929 -153.5559082 78.75610352 C-154.39984692 50.31135015 -147.05370792 26.33432652 -127.4296875 5.1328125 C-91.85693746 -28.76723769 -38.27692813 -30.11118346 0 0 Z M-102.0234375 39.1953125 C-111.46555645 52.20445416 -113.90678216 64.26797975 -112.4296875 80.1328125 C-109.95505287 93.36032382 -101.70820613 104.71506018 -91.4296875 113.1328125 C-79.94355612 120.77947861 -65.23396955 123.940477 -51.6796875 121.44140625 C-43.38394315 119.67424804 -36.28866448 117.30102767 -29.4296875 112.1328125 C-28.65109375 111.54628906 -27.8725 110.95976562 -27.0703125 110.35546875 C-16.84676138 101.96735382 -10.56504527 90.14832655 -8.4296875 77.1328125 C-7.38588629 61.54861764 -11.30468479 49.39049729 -21.33984375 37.44921875 C-31.06217445 26.67287836 -43.25460998 20.64681178 -57.69140625 18.8515625 C-74.65276075 18.09911794 -91.45449623 26.04285225 -102.0234375 39.1953125 Z " fill="#7BBFE4" transform="translate(387.4296875,68.8671875)"/>
<path d="M0 0 C0.33 0 0.66 0 1 0 C1 123.75 1 247.5 1 375 C-219.11 375 -439.22 375 -666 375 C-666 374.67 -666 374.34 -666 374 C-446.22 374 -226.44 374 0 374 C0 250.58 0 127.16 0 0 Z " fill="#808080" transform="translate(666,0)"/>
</svg>
