<?xml version="1.0" encoding="UTF-8"?>
<svg version="1.1" xmlns="http://www.w3.org/2000/svg" width="667" height="375">
<path d="M0 0 C15.53244521 13.37722554 28.68144585 35.36573407 30.44921875 56.109375 C32.00851129 84.61534068 26.7210963 108.15682275 7.44921875 130.109375 C6.7840625 130.86992187 6.11890625 131.63046875 5.43359375 132.4140625 C-4.35949383 142.89629328 -16.402666 148.90063786 -29.55078125 154.109375 C-31.89000696 155.0962086 -34.22037277 156.10179005 -36.55078125 157.109375 C-35.43703125 157.43808594 -34.32328125 157.76679688 -33.17578125 158.10546875 C-16.34334557 163.26739092 -2.87594544 170.47007619 9.44921875 183.109375 C10.17496094 183.82609375 10.90070313 184.5428125 11.6484375 185.28125 C20.96656396 195.02043129 27.35503609 207.36236092 31.44921875 220.109375 C31.69414062 220.82738281 31.9390625 221.54539062 32.19140625 222.28515625 C34.44247641 230.22557498 33.60787305 238.93867876 33.44921875 247.109375 C19.21241998 251.85497459 0.51385579 243.64396159 -12.48046875 237.73046875 C-34.21494844 226.25488469 -49.36070257 206.50972662 -56.640625 183.38671875 C-57.40530046 180.63323071 -58.04598727 177.92028041 -58.55078125 175.109375 C-58.7209375 175.64191895 -58.89109375 176.17446289 -59.06640625 176.72314453 C-67.28543633 202.11798015 -80.26879296 224.13068338 -104.68310547 237.16699219 C-119.46419752 244.62516412 -134.97584897 248.42884648 -151.55078125 248.109375 C-155.87020984 230.46617052 -147.44521921 211.81357337 -138.68408203 196.9453125 C-136.0207947 192.63080997 -132.98015428 188.83233734 -129.55078125 185.109375 C-128.31908203 183.74039063 -128.31908203 183.74039063 -127.0625 182.34375 C-115.21735503 169.79578167 -99.93645552 162.10839427 -83.55078125 157.109375 C-86.28084684 155.28933127 -88.92823183 154.05725678 -91.94482422 152.80126953 C-104.11086689 147.72103701 -114.09894631 141.39824727 -123.55078125 132.109375 C-124.45570313 131.22378906 -124.45570313 131.22378906 -125.37890625 130.3203125 C-143.35905054 111.24791645 -149.33350294 87.68772785 -148.921875 62.16015625 C-148.03874759 38.56714031 -135.6357791 16.92002862 -118.75390625 0.90234375 C-113.85236773 -3.52073981 -108.36174959 -6.79791392 -102.55078125 -9.890625 C-101.51179688 -10.44492187 -100.4728125 -10.99921875 -99.40234375 -11.5703125 C-67.1833732 -27.56046825 -28.15890664 -21.71897732 0 0 Z M-95.42578125 34.171875 C-104.90833432 44.29121266 -109.4596617 56.08390908 -109.57421875 69.9453125 C-108.79951647 84.17537023 -102.50187262 97.20903146 -92.2421875 107 C-80.49248697 116.20876384 -67.30660898 119.51417866 -52.55078125 118.109375 C-38.78514323 115.81738941 -27.47174555 109.94756408 -18.55078125 99.109375 C-10.57317874 87.90446966 -7.39362626 75.81595737 -8.55078125 62.109375 C-11.29253932 48.80793155 -17.81254451 36.76469553 -29.21191406 28.97412109 C-51.13199193 15.03861456 -76.09543774 16.31431957 -95.42578125 34.171875 Z " fill="#98E0D4" transform="translate(388.55078125,72.890625)"/>
<path d="M0 0 C0.33 0 0.66 0 1 0 C1 123.75 1 247.5 1 375 C-219.11 375 -439.22 375 -666 375 C-666 374.67 -666 374.34 -666 374 C-446.22 374 -226.44 374 0 374 C0 250.58 0 127.16 0 0 Z " fill="#808080" transform="translate(666,0)"/>
</svg>
